<svg width="40" height="40" viewBox="0 0 40 40" fill="none" xmlns="http://www.w3.org/2000/svg">
<rect x="1" y="1" width="38" height="38" rx="7" fill="#4C1D95" stroke="#6D28D9" stroke-width="2"/>
<path d="M15.3352 22.5682V37.5H7V2.59088H15.0625V16.125H15.3523C15.9432 14.5113 16.9091 13.25 18.25 12.3409C19.6023 11.4318 21.2557 10.9772 23.2102 10.9772C25.0511 10.9772 26.6534 11.3863 28.017 12.2045C29.3807 13.0113 30.4375 14.1534 31.1875 15.6307C31.9489 17.1079 32.3239 18.8352 32.3125 20.8125V37.5H23.9773V22.4488C23.9886 20.9943 23.625 19.8579 22.8864 19.0397C22.1477 18.2216 21.108 17.8125 19.767 17.8125C18.892 17.8125 18.1193 18.0057 17.4489 18.392C16.7898 18.767 16.2727 19.3068 15.8977 20.0113C15.5341 20.7159 15.3466 21.5682 15.3352 22.5682Z" fill="white"/>
</svg>
